<svg width="73" height="75" xmlns="http://www.w3.org/2000/svg" xmlns:xlink="http://www.w3.org/1999/xlink" xml:space="preserve" overflow="hidden"><g transform="translate(-830 -381)"><path d="M36.4912 3.65292C54.5748 3.56094 69.6405 18.4661 69.3442 37.0504 69.0668 54.769 54.531 69.6113 35.9861 69.3427 17.8441 69.0799 3.34778 54.1164 3.65876 35.9116 3.9639 18.0091 18.6413 3.58576 36.4912 3.65292M20.2998 36.5453C20.1976 36.7161 20.0954 36.9059 19.983 37.0898 19.2048 38.4038 18.4208 39.7076 17.6616 41.026 17.5492 41.2202 17.555 41.483 17.5112 41.7166 17.7492 41.7166 18.0076 41.7852 18.2223 41.7122 20.2517 41.0362 22.2752 40.3208 24.3046 39.639 24.6886 39.5076 24.9134 39.3032 25.039 38.9134 25.2098 38.3922 25.4084 37.8724 25.6624 37.3848 27.1808 34.4837 29.6132 32.6018 32.5624 31.3462 37.0387 29.438 41.6582 29.219 46.3638 30.2906 47.1478 30.4658 47.2792 30.368 47.2544 29.5606 47.2106 28.1838 46.7726 26.9326 46.028 25.7894 44.641 23.6724 42.67 22.2708 40.388 21.2883 36.2226 19.4968 31.9054 19.2048 27.5064 20.1538 24.4156 20.8211 21.6226 22.0913 19.3742 24.3776 16.3418 27.4582 16.0804 31.4878 18.7026 34.8298 19.1742 35.4327 19.7436 35.954 20.2984 36.5423M53.1236 47.6004C53.3674 47.3814 53.601 47.196 53.8054 46.9872 56.5896 44.1446 56.8568 40.2566 54.477 37.0752 53.3922 35.6196 51.995 34.5246 50.3846 33.7172 46.0002 31.517 41.4114 31.1374 36.6854 32.2967 33.8486 32.9975 31.3228 34.272 29.3664 36.5204 26.9282 39.328 26.7822 42.997 28.9825 45.9856 29.9796 47.339 31.2498 48.3902 32.7142 49.1874 37.2402 51.6358 42.0144 52.0198 46.958 50.808 47.5026 50.6722 47.9756 50.6868 48.4954 50.8708 50.3744 51.5424 52.2665 52.1848 54.1543 52.8418 54.6069 52.998 55.0595 53.0856 55.4099 52.6418 55.7501 52.2184 55.6245 51.7993 55.3661 51.3716 54.6259 50.1495 53.9061 48.9144 53.1221 47.6004" fill="#2c5835" transform="matrix(1 0 0 1.0274 830 381)"/><path d="M50.6824 48.545C49.8648 48.2676 49.1684 48.053 48.4968 47.7858 47.9858 47.5858 47.523 47.6062 47.0032 47.761 42.9941 48.9684 39.0419 48.8224 35.1729 47.1814 33.7231 46.5682 32.4324 45.7024 31.4061 44.476 29.6103 42.3298 29.7022 39.8098 31.644 37.7848 33.2895 36.062 35.3568 35.1276 37.63 34.602 41.5866 33.6968 45.4206 34.037 49.0896 35.843 50.2182 36.4022 51.211 37.157 52.0432 38.106 53.893 40.223 53.8536 42.8072 51.9074 44.841 51.3774 45.3958 50.7788 45.8878 50.1802 46.374 49.7962 46.6908 49.7174 46.9916 50.005 47.4106 50.2284 47.7318 50.4138 48.0866 50.681 48.545M49.9773 41.2304C49.9875 40.1544 49.1553 39.293 48.0895 39.2696 47.0091 39.2448 46.0995 40.131 46.1039 41.207 46.1039 42.2626 46.9755 43.1299 48.0355 43.1342 49.1159 43.1386 49.9627 42.3064 49.9773 41.2319M39.6755 41.2012C39.6755 42.2962 40.4829 43.124 41.5691 43.1328 42.6743 43.1372 43.5211 42.2904 43.5109 41.1808 43.5007 40.1106 42.6451 39.2638 41.5793 39.2682 40.5033 39.2725 39.677 40.115 39.677 41.1997M35.1057 43.1342C36.1715 43.1445 37.0475 42.2977 37.0665 41.2362 37.0855 40.1602 36.1949 39.2696 35.1145 39.2696 34.053 39.274 33.1873 40.1354 33.1873 41.2012 33.1829 42.2568 34.0443 43.124 35.1042 43.1328" fill="#2c5835" transform="matrix(1 0 0 1.0274 830 381)"/></g></svg>